<svg width="55" height="51" viewBox="0 0 55 51" fill="none" xmlns="http://www.w3.org/2000/svg">
<path d="M54.5 25.5C54.5 39.2722 42.4479 50.5 27.5 50.5C12.5521 50.5 0.5 39.2722 0.5 25.5C0.5 11.7278 12.5521 0.5 27.5 0.5C42.4479 0.5 54.5 11.7278 54.5 25.5Z" fill="#BC6C25" stroke="black"/>
<mask id="path-2-inside-1_72_350" fill="white">
<path d="M44 9.94444H35.75L33.3929 8H21.6071L19.25 9.94444H11V13.8333H44M13.3571 39.1111C13.3571 40.1425 13.8538 41.1317 14.7379 41.861C15.622 42.5903 16.8211 43 18.0714 43H36.9286C38.1789 43 39.378 42.5903 40.2621 41.861C41.1462 41.1317 41.6429 40.1425 41.6429 39.1111V15.7778H13.3571V39.1111Z"/>
</mask>
<path d="M44 9.94444H35.75L33.3929 8H21.6071L19.25 9.94444H11V13.8333H44M13.3571 39.1111C13.3571 40.1425 13.8538 41.1317 14.7379 41.861C15.622 42.5903 16.8211 43 18.0714 43H36.9286C38.1789 43 39.378 42.5903 40.2621 41.861C41.1462 41.1317 41.6429 40.1425 41.6429 39.1111V15.7778H13.3571V39.1111Z" fill="#FEFAE0"/>
<path d="M35.75 9.94444L35.1137 10.7158L35.3908 10.9444H35.75V9.94444ZM33.3929 8L34.0292 7.22859L33.7521 7H33.3929V8ZM21.6071 8V7H21.2479L20.9708 7.22859L21.6071 8ZM19.25 9.94444V10.9444H19.6092L19.8863 10.7158L19.25 9.94444ZM11 9.94444V8.94444H10V9.94444H11ZM11 13.8333H10V14.8333H11V13.8333ZM13.3571 39.1111H12.3571H13.3571ZM41.6429 15.7778H42.6429V14.7778H41.6429V15.7778ZM13.3571 15.7778V14.7778H12.3571V15.7778H13.3571ZM44 8.94444H35.75V10.9444H44V8.94444ZM36.3863 9.17304L34.0292 7.22859L32.7565 8.77141L35.1137 10.7158L36.3863 9.17304ZM33.3929 7H21.6071V9H33.3929V7ZM20.9708 7.22859L18.6137 9.17304L19.8863 10.7158L22.2435 8.77141L20.9708 7.22859ZM19.25 8.94444H11V10.9444H19.25V8.94444ZM10 9.94444V13.8333H12V9.94444H10ZM11 14.8333H44V12.8333H11V14.8333ZM12.3571 39.1111C12.3571 40.4767 13.0162 41.737 14.1016 42.6324L15.3743 41.0896C14.6915 40.5263 14.3571 39.8084 14.3571 39.1111H12.3571ZM14.1016 42.6324C15.1815 43.5232 16.6115 44 18.0714 44V42C17.0307 42 16.0625 41.6573 15.3743 41.0896L14.1016 42.6324ZM18.0714 44H36.9286V42H18.0714V44ZM36.9286 44C38.3885 44 39.8185 43.5232 40.8984 42.6324L39.6257 41.0896C38.9375 41.6573 37.9693 42 36.9286 42V44ZM40.8984 42.6324C41.9838 41.737 42.6429 40.4767 42.6429 39.1111H40.6429C40.6429 39.8084 40.3085 40.5263 39.6257 41.0896L40.8984 42.6324ZM42.6429 39.1111V15.7778H40.6429V39.1111H42.6429ZM41.6429 14.7778H13.3571V16.7778H41.6429V14.7778ZM12.3571 15.7778V39.1111H14.3571V15.7778H12.3571Z" fill="black" mask="url(#path-2-inside-1_72_350)"/>
</svg>
