<svg width="55" height="51" viewBox="0 0 55 51" fill="none" xmlns="http://www.w3.org/2000/svg">
<path d="M54.5 25.5C54.5 39.2722 42.4479 50.5 27.5 50.5C12.5521 50.5 0.5 39.2722 0.5 25.5C0.5 11.7278 12.5521 0.5 27.5 0.5C42.4479 0.5 54.5 11.7278 54.5 25.5Z" fill="#BC6C25" stroke="black"/>
<path d="M23.6612 36.0346C22.9514 36.2941 22.1968 36.4876 20.6856 36.8746L12.724 38.9175C12.3595 39.0115 11.9681 39.0255 11.5938 38.9578C11.2196 38.8901 10.8773 38.7434 10.6054 38.5343C10.3335 38.3252 10.1429 38.0619 10.0549 37.774M23.6612 36.0346C24.4997 35.7271 25.2913 35.3506 26.0226 34.9112C26.6426 34.5392 27.2062 34.1057 28.3313 33.2402L28.3313 33.2402L42.2737 22.5153C42.0846 22.4516 41.8969 22.3857 41.7105 22.3177M23.6612 36.0346L23.489 35.5652C23.4892 35.5651 23.4894 35.5651 23.4895 35.565M23.6612 36.0346L23.4895 35.565M41.7105 22.3177L42.1818 21.9551C39.9804 21.1855 37.9763 20.1155 36.2675 18.7957M41.7105 22.3177L28.0264 32.8439C26.893 33.7158 26.3551 34.1286 25.7653 34.4824L25.765 34.4826C25.0623 34.9049 24.2996 35.2679 23.4895 35.565M41.7105 22.3177C39.5825 21.541 37.637 20.4851 35.9627 19.1921M36.2675 18.7957C34.5509 17.4809 33.1592 15.9388 32.1583 14.2447L31.7592 14.5518M36.2675 18.7957L35.9635 19.1927C35.9632 19.1925 35.9629 19.1923 35.9627 19.1921M36.2675 18.7957L35.9619 19.1914C35.9621 19.1916 35.9624 19.1919 35.9627 19.1921M31.7592 14.5518C31.6728 14.407 31.5891 14.261 31.5082 14.114L17.4877 24.899C16.3626 25.7645 15.7991 26.198 15.3155 26.6749C14.7444 27.2378 14.2547 27.8469 13.855 28.4914M31.7592 14.5518C32.7931 16.285 34.2182 17.8557 35.9627 19.1921M31.7592 14.5518L17.7926 25.2953C16.6576 26.1684 16.1232 26.5806 15.6666 27.0309L15.6665 27.0311C15.1221 27.5676 14.6578 28.1457 14.2802 28.7544M13.855 28.4914C13.5198 29.0339 13.2693 29.6119 12.7726 30.7582L12.763 30.7803L10.1072 36.9046C9.985 37.185 9.96687 37.4861 10.0549 37.774M13.855 28.4914L14.2804 28.7542C14.2803 28.7543 14.2803 28.7543 14.2802 28.7544M13.855 28.4914L14.2799 28.7549C14.28 28.7547 14.2801 28.7546 14.2802 28.7544M10.0549 37.774L10.533 37.6278C10.4805 37.4559 10.4901 37.2774 10.5656 37.1044L10.566 37.1035L13.2218 30.9792L13.2218 30.9791C13.7303 29.8057 13.9663 29.2625 14.2802 28.7544M10.0549 37.774L10.533 37.6278C10.5865 37.8029 10.7088 37.9831 10.9102 38.138C11.1122 38.2933 11.3784 38.4107 11.6828 38.4658C11.9868 38.5208 12.3053 38.5092 12.5992 38.4334L12.5998 38.4332L20.5613 36.3903L20.5616 36.3902C22.0822 36.0008 22.8086 35.814 23.4895 35.565M38.6404 16.8088L38.6382 16.8071C36.9278 15.4992 35.6224 13.9286 34.801 12.2119L36.2155 11.1238C37.5555 10.093 39.3951 9.5 41.3324 9.5C43.2698 9.5 45.1093 10.093 46.4494 11.1238C47.7865 12.1524 48.5 13.5151 48.5 14.8981C48.5 16.2811 47.7865 17.6438 46.4494 18.6724L44.9145 19.8531C42.5438 19.2126 40.3995 18.17 38.6404 16.8088Z" fill="#FEFAE0" stroke="black"/>
</svg>
