<svg width="55" height="51" viewBox="0 0 55 51" fill="none" xmlns="http://www.w3.org/2000/svg">
<path d="M54.5 25.5C54.5 39.2722 42.4479 50.5 27.5 50.5C12.5521 50.5 0.5 39.2722 0.5 25.5C0.5 11.7278 12.5521 0.5 27.5 0.5C42.4479 0.5 54.5 11.7278 54.5 25.5Z" fill="#BC6C25" stroke="black"/>
<path d="M43.0978 38.1172L43.1226 38.1429L43.1266 38.1459C43.2407 38.2693 43.3324 38.4141 43.3965 38.5734L43.8604 38.3869L43.3965 38.5734C43.4647 38.7432 43.5 38.9256 43.5 39.1101C43.5 39.2947 43.4647 39.4771 43.3965 39.6468L43.8604 39.8334L43.3965 39.6468C43.3282 39.8166 43.2286 39.9698 43.1039 40.0982C42.9793 40.2266 42.8322 40.3276 42.6714 40.3963C42.5106 40.4649 42.3388 40.5 42.1656 40.5C41.9925 40.5 41.8207 40.4649 41.6599 40.3963C41.4991 40.3276 41.3519 40.2266 41.2273 40.0982L33.9743 32.6242L33.6597 32.3L33.3054 32.5802C30.5746 34.7392 27.1515 35.7454 23.7304 35.3984C20.3092 35.0513 17.1407 33.3762 14.8694 30.708C12.5977 28.0394 11.3944 24.5777 11.5073 21.0249C11.6201 17.4722 13.0405 14.0995 15.4761 11.5902C17.9113 9.08127 21.1787 7.62332 24.6145 7.50747C28.0502 7.39163 31.4026 8.62631 33.9912 10.9652C36.5802 13.3045 38.2114 16.5738 38.5495 20.1112C38.8876 23.6486 37.9066 27.1845 35.8087 30.0011L35.5544 30.3424L35.8508 30.6479L43.0978 38.1172ZM14.1932 21.4956L14.1932 21.4961C14.1961 24.4583 15.3395 27.3011 17.3768 29.4001C19.4146 31.4996 22.1809 32.6833 25.0694 32.6863H25.0699C27.2245 32.6863 29.3295 32.028 31.1185 30.7965C32.9073 29.5651 34.2993 27.8164 35.1207 25.7733C35.9421 23.7303 36.1568 21.4831 35.7382 19.3152C35.3197 17.1472 34.2862 15.1539 32.7662 13.5879C31.2461 12.0218 29.3075 10.9535 27.1947 10.5205C25.0818 10.0875 22.892 10.3099 20.9027 11.1588C18.9135 12.0077 17.2158 13.4441 16.0225 15.2841C14.8292 17.124 14.1932 19.2856 14.1932 21.4956Z" fill="#FEFAE0" stroke="black"/>
</svg>
