<svg width="139" height="154" viewBox="0 0 139 154" fill="none" xmlns="http://www.w3.org/2000/svg">
<path d="M138.5 77C138.5 119.299 107.561 153.5 69.5 153.5C31.4393 153.5 0.5 119.299 0.5 77C0.5 34.7008 31.4393 0.5 69.5 0.5C107.561 0.5 138.5 34.7008 138.5 77Z" fill="#BC6C25" stroke="black"/>
<path d="M100.856 37.4971C100.677 27.8658 95.0393 17.4673 82.9929 15.5626C81.9093 15.3917 81.0092 15.5795 80.2456 16.0309C79.4729 16.4877 78.8063 17.2349 78.2389 18.2341C77.0984 20.2424 76.4189 23.1599 76.0507 26.3707C75.316 32.7765 75.8435 40.117 76.1688 43.0434M100.856 37.4971L75.6718 43.0986M100.856 37.4971C100.946 42.3098 99.6659 46.8648 97.1951 50.0095C94.7422 53.1316 91.1004 54.8901 86.3411 54.1386M100.856 37.4971L86.2631 54.6325M76.1688 43.0434L75.6718 43.0986M76.1688 43.0434C76.1688 43.0434 76.1688 43.0433 76.1688 43.0433L75.6718 43.0986M76.1688 43.0434C76.7907 48.6283 80.8767 53.2732 86.3411 54.1386M75.6718 43.0986C76.3162 48.8849 80.5547 53.7286 86.2631 54.6325M86.3411 54.1386L86.2631 54.6325M86.3411 54.1386C86.3412 54.1386 86.3413 54.1386 86.3413 54.1386L86.2631 54.6325M59.7554 16.0302C58.9918 15.5791 58.0914 15.3914 57.0075 15.5625L59.7554 16.0302ZM59.7554 16.0302C60.5283 16.4868 61.1949 17.2339 61.7624 18.2329M59.7554 16.0302L61.7624 18.2329M61.7624 18.2329C62.903 20.2408 63.5824 23.1581 63.9505 26.3687M61.7624 18.2329L63.9505 26.3687M63.9505 26.3687C64.6848 32.7741 64.1568 40.1145 63.8315 43.041M63.9505 26.3687L63.8315 43.041M63.8315 43.041C63.2095 48.6285 59.1282 53.271 53.6639 54.1363M63.8315 43.041L53.6639 54.1363M53.6639 54.1363C48.9033 54.889 45.2609 53.1311 42.8075 50.0095C40.3363 46.8651 39.0563 42.3104 39.1457 37.4976C39.3246 27.8664 44.9622 17.4673 57.0074 15.5625L53.6639 54.1363ZM69.9989 61.0626H70.0001C76.6641 61.0626 82.2204 65.2673 83.7846 70.8972L83.7847 70.8976C84.1831 72.3276 84.4919 73.7815 84.8028 75.2457C84.8876 75.6445 84.9724 76.0442 85.0593 76.4443C85.4628 78.3025 85.908 80.1605 86.5782 81.9257C87.9282 85.4816 90.1905 88.6541 94.8307 90.8104L94.8598 90.8239L94.8904 90.8336C98.8606 92.0923 101.497 93.4847 103.157 95.5466C104.809 97.5989 105.557 100.395 105.557 104.612C105.557 111.155 99.5067 118.197 91.6758 119.075L91.6758 119.075L91.6622 119.076C82.7455 120.324 75.8302 118.692 70.2322 115.72L69.9977 115.595L69.7632 115.72C64.165 118.692 57.2473 120.326 48.3431 119.076L48.3431 119.076L48.3292 119.075C40.494 118.197 34.4461 111.13 34.4461 104.612C34.4461 100.495 35.2415 97.6527 36.9453 95.5455C38.6558 93.4299 41.3423 91.9784 45.2951 90.7783L45.3309 90.7675L45.3647 90.7514C50.4118 88.3492 52.6203 85.0177 53.8289 81.3955C54.4272 79.6022 54.78 77.7398 55.1172 75.9132C55.13 75.8435 55.1429 75.7738 55.1557 75.7041C55.4812 73.9394 55.7998 72.2114 56.3162 70.5527C57.1819 67.8165 58.9788 65.4087 61.4451 63.6949C63.912 61.9806 66.9135 61.0553 69.9989 61.0626ZM114.66 55.8747L114.66 55.8749C117.05 57.8083 118.258 61.2065 118.467 65.1144C118.675 69.0086 117.883 73.3139 116.38 76.9355L116.379 76.9354L116.375 76.9478C114.866 80.8728 111.233 83.6096 107.01 83.6096C101.463 83.6096 96.9085 78.8426 96.9085 72.9044C96.9085 69.9568 98.0396 67.289 99.8533 65.3506L99.8643 65.3389L99.8745 65.3264C101.397 63.4733 104.62 60.631 107.771 58.4968C109.346 57.4304 110.876 56.5591 112.146 56.0756C112.782 55.8334 113.328 55.6981 113.767 55.673C114.208 55.6478 114.488 55.7356 114.66 55.8747ZM23.6279 76.9478L23.6281 76.9478L23.6229 76.9353C22.1174 73.3138 21.325 69.0086 21.5327 65.1144C21.7411 61.2067 22.9487 57.8085 25.335 55.875C25.5076 55.7356 25.788 55.6478 26.2296 55.673C26.6696 55.6981 27.2161 55.8335 27.8522 56.0756C29.1225 56.5591 30.653 57.4304 32.2279 58.4969C35.3794 60.631 38.6023 63.4733 40.1258 65.3265L40.136 65.3389L40.1469 65.3506C41.9604 67.2888 43.0892 69.9565 43.0892 72.9044C43.0892 78.8428 38.5393 83.6096 32.9881 83.6096C28.7678 83.6096 25.1363 80.873 23.6279 76.9478Z" fill="#FEFAE0" stroke="black"/>
</svg>
