<svg width="83" height="71" viewBox="0 0 83 71" fill="none" xmlns="http://www.w3.org/2000/svg">
<path d="M81.7539 35.5C81.7539 54.7635 63.6362 70.5 41.127 70.5C18.6177 70.5 0.5 54.7635 0.5 35.5C0.5 16.2365 18.6177 0.5 41.127 0.5C63.6362 0.5 81.7539 16.2365 81.7539 35.5Z" fill="#282626" fill-opacity="0.51" stroke="black"/>
<mask id="path-2-inside-1_72_357" fill="white">
<path fill-rule="evenodd" clip-rule="evenodd" d="M7.11257 55.4613C14.5146 46.0817 26.9875 39.9226 41.127 39.9226C55.2664 39.9226 67.7393 46.0817 75.1414 55.4613C67.7393 64.8409 55.2664 71 41.127 71C26.9875 71 14.5146 64.8409 7.11257 55.4613Z"/>
</mask>
<path fill-rule="evenodd" clip-rule="evenodd" d="M7.11257 55.4613C14.5146 46.0817 26.9875 39.9226 41.127 39.9226C55.2664 39.9226 67.7393 46.0817 75.1414 55.4613C67.7393 64.8409 55.2664 71 41.127 71C26.9875 71 14.5146 64.8409 7.11257 55.4613Z" fill="#DDA15E" fill-opacity="0.68"/>
<path d="M7.11257 55.4613L6.32757 54.8418L5.83869 55.4613L6.32757 56.0808L7.11257 55.4613ZM75.1414 55.4613L75.9264 56.0808L76.4152 55.4613L75.9264 54.8418L75.1414 55.4613ZM7.89758 56.0808C15.0967 46.9582 27.2716 40.9226 41.127 40.9226V38.9226C26.7034 38.9226 13.9325 45.2051 6.32757 54.8418L7.89758 56.0808ZM41.127 40.9226C54.9824 40.9226 67.1572 46.9582 74.3564 56.0808L75.9264 54.8418C68.3215 45.2051 55.5505 38.9226 41.127 38.9226V40.9226ZM74.3564 54.8418C67.1572 63.9643 54.9824 70 41.127 70V72C55.5505 72 68.3215 65.7175 75.9264 56.0808L74.3564 54.8418ZM41.127 70C27.2716 70 15.0967 63.9643 7.89758 54.8418L6.32757 56.0808C13.9325 65.7175 26.7034 72 41.127 72V70Z" fill="black" mask="url(#path-2-inside-1_72_357)"/>
<path d="M52.8176 21.1565C52.8176 26.6891 47.5951 31.2946 40.9929 31.2946C34.3907 31.2946 29.1682 26.6891 29.1682 21.1565C29.1682 15.624 34.3907 11.0185 40.9929 11.0185C47.5951 11.0185 52.8176 15.624 52.8176 21.1565Z" fill="#DDA15E" fill-opacity="0.68" stroke="black"/>
</svg>
