<svg width="139" height="154" viewBox="0 0 139 154" fill="none" xmlns="http://www.w3.org/2000/svg">
<path d="M138.5 77C138.5 119.299 107.561 153.5 69.5 153.5C31.4393 153.5 0.5 119.299 0.5 77C0.5 34.7008 31.4393 0.5 69.5 0.5C107.561 0.5 138.5 34.7008 138.5 77Z" fill="#BC6C25" stroke="black"/>
<mask id="path-2-inside-1_129_9" fill="white">
<path fill-rule="evenodd" clip-rule="evenodd" d="M12.0195 120.296C24.528 99.9518 45.6059 86.5926 69.5 86.5926C93.3941 86.5926 114.472 99.9518 126.981 120.296C114.472 140.641 93.3941 154 69.5 154C45.6059 154 24.528 140.641 12.0195 120.296Z"/>
</mask>
<path fill-rule="evenodd" clip-rule="evenodd" d="M12.0195 120.296C24.528 99.9518 45.6059 86.5926 69.5 86.5926C93.3941 86.5926 114.472 99.9518 126.981 120.296C114.472 140.641 93.3941 154 69.5 154C45.6059 154 24.528 140.641 12.0195 120.296Z" fill="#FEFAE0"/>
<path d="M12.0195 120.296L11.1676 119.773L10.8456 120.296L11.1676 120.82L12.0195 120.296ZM126.981 120.296L127.832 120.82L128.154 120.296L127.832 119.773L126.981 120.296ZM12.8713 120.82C25.2226 100.731 45.9978 87.5926 69.5 87.5926V85.5926C45.2139 85.5926 23.8335 99.1721 11.1676 119.773L12.8713 120.82ZM69.5 87.5926C93.0022 87.5926 113.777 100.731 126.129 120.82L127.832 119.773C115.167 99.1721 93.7861 85.5926 69.5 85.5926V87.5926ZM126.129 119.773C113.777 139.861 93.0022 153 69.5 153V155C93.7861 155 115.167 141.42 127.832 120.82L126.129 119.773ZM69.5 153C45.9978 153 25.2226 139.861 12.8713 119.773L11.1676 120.82C23.8335 141.42 45.2139 155 69.5 155V153Z" fill="black" mask="url(#path-2-inside-1_129_9)"/>
<path d="M89.6008 45.8889C89.6008 58.4056 80.453 68.4629 69.2735 68.4629C58.0939 68.4629 48.9461 58.4056 48.9461 45.8889C48.9461 33.3721 58.0939 23.3148 69.2735 23.3148C80.453 23.3148 89.6008 33.3721 89.6008 45.8889Z" fill="#FEFAE0" stroke="black"/>
</svg>
