<svg width="90" height="90" viewBox="0 0 90 90" fill="none" xmlns="http://www.w3.org/2000/svg">
<path d="M22.5 50H40V67.5V68H40.5H49.5H50V67.5V50H67.5H68V49.5V40.5V40H67.5H50V22.5V22H49.5H40.5H40V22.5V40H22.5H22V40.5V49.5V50H22.5ZM45 89.5C33.1979 89.5 21.8791 84.8116 13.5337 76.4663C5.18838 68.1209 0.5 56.8021 0.5 45C0.5 33.1979 5.18838 21.8791 13.5337 13.5337C21.8791 5.18838 33.1979 0.5 45 0.5C56.8021 0.5 68.1209 5.18838 76.4663 13.5337C84.8116 21.8791 89.5 33.1979 89.5 45C89.5 56.8021 84.8116 68.1209 76.4663 76.4663C68.1209 84.8116 56.8021 89.5 45 89.5Z" fill="#DDA15E" stroke="black"/>
</svg>
