<svg width="180" height="180" viewBox="0 0 180 180" fill="none" xmlns="http://www.w3.org/2000/svg">
<g filter="url(#filter0_d_151_14)">
<circle cx="90" cy="86" r="86" fill="#DDA15E"/>
<circle cx="90" cy="86" r="85.5" stroke="black"/>
</g>
<path d="M130.754 75.5C130.754 94.7635 112.636 110.5 90.127 110.5C67.6177 110.5 49.5 94.7635 49.5 75.5C49.5 56.2365 67.6177 40.5 90.127 40.5C112.636 40.5 130.754 56.2365 130.754 75.5Z" fill="#282626" fill-opacity="0.51" stroke="black"/>
<mask id="path-4-inside-1_151_14" fill="white">
<path fill-rule="evenodd" clip-rule="evenodd" d="M56.1126 95.4613C63.5146 86.0817 75.9875 79.9226 90.127 79.9226C104.266 79.9226 116.739 86.0817 124.141 95.4613C116.739 104.841 104.266 111 90.127 111C75.9875 111 63.5146 104.841 56.1126 95.4613Z"/>
</mask>
<path fill-rule="evenodd" clip-rule="evenodd" d="M56.1126 95.4613C63.5146 86.0817 75.9875 79.9226 90.127 79.9226C104.266 79.9226 116.739 86.0817 124.141 95.4613C116.739 104.841 104.266 111 90.127 111C75.9875 111 63.5146 104.841 56.1126 95.4613Z" fill="#FEFAE0"/>
<path d="M56.1126 95.4613L55.3276 94.8418L54.8387 95.4613L55.3276 96.0808L56.1126 95.4613ZM124.141 95.4613L124.926 96.0808L125.415 95.4613L124.926 94.8418L124.141 95.4613ZM56.8976 96.0808C64.0967 86.9583 76.2716 80.9226 90.127 80.9226V78.9226C75.7034 78.9226 62.9325 85.2051 55.3276 94.8418L56.8976 96.0808ZM90.127 80.9226C103.982 80.9226 116.157 86.9583 123.356 96.0808L124.926 94.8418C117.321 85.2051 104.55 78.9226 90.127 78.9226V80.9226ZM123.356 94.8418C116.157 103.964 103.982 110 90.127 110V112C104.55 112 117.321 105.718 124.926 96.0808L123.356 94.8418ZM90.127 110C76.2716 110 64.0967 103.964 56.8976 94.8418L55.3276 96.0808C62.9325 105.718 75.7034 112 90.127 112V110Z" fill="black" mask="url(#path-4-inside-1_151_14)"/>
<path d="M101.818 61.1566C101.818 66.6892 96.5951 71.2946 89.9929 71.2946C83.3907 71.2946 78.1682 66.6892 78.1682 61.1566C78.1682 55.624 83.3907 51.0186 89.9929 51.0186C96.5951 51.0186 101.818 55.624 101.818 61.1566Z" fill="#FEFAE0" stroke="black"/>
<path d="M68.5059 143.696C67.8659 144.176 67.2366 144.416 66.6179 144.416C65.9993 144.416 65.5086 144.256 65.1459 143.936C64.7833 143.616 64.6019 143.136 64.6019 142.496C64.6019 142.315 64.6073 142.176 64.6179 142.08L64.4579 142.032C63.4019 143.611 61.9833 144.4 60.2019 144.4C58.4846 144.4 57.6259 143.493 57.6259 141.68C57.6259 141.072 57.7113 140.267 57.8819 139.264C58.0526 138.251 58.1966 137.397 58.3139 136.704C58.4419 136 58.5273 135.52 58.5699 135.264L57.7219 133.552C58.3939 133.168 58.9753 132.88 59.4659 132.688C59.9673 132.496 60.4686 132.4 60.9699 132.4C61.4713 132.4 61.8073 132.533 61.9779 132.8C62.1593 133.056 62.2499 133.365 62.2499 133.728C62.2499 134.091 62.0686 135.253 61.7059 137.216C61.3539 139.179 61.1779 140.325 61.1779 140.656C61.1779 141.499 61.4659 141.92 62.0419 141.92C62.4686 141.92 62.9539 141.648 63.4979 141.104C64.0419 140.56 64.4846 139.813 64.8259 138.864C64.6019 138.213 64.4899 137.541 64.4899 136.848C64.4899 135.611 64.7939 134.56 65.4019 133.696C66.0206 132.832 66.8899 132.4 68.0099 132.4C68.6286 132.4 69.1246 132.501 69.4979 132.704C69.4019 133.28 69.2153 134.325 68.9379 135.84C68.3299 139.051 68.0259 140.896 68.0259 141.376C68.0259 142.411 68.1859 143.184 68.5059 143.696ZM72.4763 147.184C71.815 147.184 71.351 147.019 71.0843 146.688C70.8283 146.368 70.7003 145.899 70.7003 145.28C70.7003 144.672 70.8283 143.44 71.0843 141.584C71.351 139.728 71.607 138.144 71.8523 136.832L70.9563 135.552C71.6176 135.168 72.1883 134.88 72.6683 134.688C73.1483 134.485 73.623 134.384 74.0923 134.384C74.8603 134.384 75.2443 134.891 75.2443 135.904C75.2443 136.043 75.223 136.325 75.1803 136.752L75.3403 136.832C75.6496 136.064 76.0976 135.467 76.6843 135.04C77.271 134.603 77.959 134.384 78.7483 134.384C79.5483 134.384 80.183 134.747 80.6523 135.472C81.1216 136.187 81.3563 137.077 81.3563 138.144C81.3563 139.573 80.855 140.875 79.8523 142.048C79.3616 142.624 78.7056 143.093 77.8843 143.456C77.063 143.808 76.1456 143.984 75.1323 143.984C74.823 143.984 74.4176 143.957 73.9163 143.904C73.8843 144.277 73.8683 144.624 73.8683 144.944C73.8683 145.627 74.0336 146.112 74.3643 146.4C73.767 146.923 73.1376 147.184 72.4763 147.184ZM74.5723 140.56L74.2043 142.416C75.495 142.384 76.5243 141.963 77.2923 141.152C78.071 140.331 78.4603 139.435 78.4603 138.464C78.4603 137.963 78.359 137.563 78.1563 137.264C77.9643 136.955 77.6816 136.8 77.3083 136.8C75.9856 136.8 75.0736 138.053 74.5723 140.56ZM84.4543 134.048L83.5583 132.768C84.8916 131.989 85.9423 131.6 86.7103 131.6C87.1476 131.6 87.457 131.691 87.6383 131.872C87.8196 132.043 87.9103 132.373 87.9103 132.864C87.9103 133.344 87.6703 134.709 87.1903 136.96C86.721 139.211 86.4863 140.789 86.4863 141.696C86.4863 142.603 86.6516 143.243 86.9823 143.616C86.2356 144.139 85.5583 144.4 84.9503 144.4C84.3423 144.4 83.8943 144.203 83.6063 143.808C83.329 143.403 83.1903 142.848 83.1903 142.144C83.1903 141.44 83.3876 140 83.7823 137.824C84.177 135.648 84.401 134.389 84.4543 134.048ZM96.8346 135.616C97.4319 135.616 97.9439 135.856 98.3706 136.336C98.8079 136.816 99.0266 137.515 99.0266 138.432C99.0266 139.339 98.8666 140.181 98.5466 140.96C98.2266 141.728 97.8052 142.357 97.2826 142.848C96.7599 143.339 96.1679 143.723 95.5066 144C94.8452 144.267 94.1679 144.4 93.4746 144.4C92.0772 144.4 90.9732 144.016 90.1626 143.248C89.3519 142.48 88.9466 141.461 88.9466 140.192C88.9466 138.475 89.4959 137.083 90.5946 136.016C91.7039 134.939 93.1119 134.4 94.8186 134.4C95.2026 134.4 95.5866 134.443 95.9706 134.528C96.0879 134.88 96.1519 135.28 96.1626 135.728C96.3866 135.653 96.6106 135.616 96.8346 135.616ZM94.8666 137.84C94.8666 137.541 94.9359 137.205 95.0746 136.832C95.2239 136.459 95.4586 136.16 95.7786 135.936C94.3706 136.235 93.3999 136.805 92.8666 137.648C92.4079 138.373 92.1786 139.12 92.1786 139.888C92.1786 140.656 92.3332 141.275 92.6426 141.744C92.9626 142.203 93.3679 142.432 93.8586 142.432C94.9466 142.432 95.7146 141.723 96.1626 140.304C95.2986 139.771 94.8666 138.949 94.8666 137.84ZM106.496 142.032L106.336 141.952C106.048 142.72 105.632 143.323 105.088 143.76C104.555 144.187 103.957 144.4 103.296 144.4C102.389 144.4 101.664 144.059 101.12 143.376C100.576 142.693 100.304 141.781 100.304 140.64C100.304 138.869 100.896 137.387 102.08 136.192C103.275 134.997 104.757 134.4 106.528 134.4C106.987 134.4 107.408 134.443 107.792 134.528C107.856 134.827 107.893 135.088 107.904 135.312C108.437 134.971 108.987 134.8 109.552 134.8C110.331 134.8 110.72 135.221 110.72 136.064C110.72 136.363 110.549 137.264 110.208 138.768C109.877 140.272 109.712 141.387 109.712 142.112C109.712 142.837 109.877 143.339 110.208 143.616C109.611 144.139 108.987 144.4 108.336 144.4C107.696 144.4 107.227 144.208 106.928 143.824C106.64 143.44 106.496 142.843 106.496 142.032ZM103.312 139.856C103.312 140.379 103.419 140.784 103.632 141.072C103.856 141.349 104.171 141.488 104.576 141.488C104.981 141.488 105.381 141.339 105.776 141.04C106.171 140.741 106.501 140.331 106.768 139.808C106.864 138.731 107.072 137.456 107.392 135.984C106.315 135.984 105.365 136.373 104.544 137.152C103.723 137.931 103.312 138.832 103.312 139.856ZM118.357 142.832L118.197 142.752C117.365 143.851 116.373 144.4 115.221 144.4C114.368 144.4 113.643 144.064 113.045 143.392C112.459 142.709 112.165 141.792 112.165 140.64C112.165 139.211 112.667 137.909 113.669 136.736C114.16 136.16 114.816 135.696 115.637 135.344C116.459 134.981 117.376 134.8 118.389 134.8C118.581 134.8 118.923 134.821 119.413 134.864C119.435 134.64 119.483 134.368 119.557 134.048L118.661 132.768C119.995 131.989 121.045 131.6 121.813 131.6C122.251 131.6 122.56 131.691 122.741 131.872C122.923 132.043 123.013 132.373 123.013 132.864C123.013 133.344 122.773 134.709 122.293 136.96C121.824 139.211 121.589 140.811 121.589 141.76C121.589 142.699 121.755 143.317 122.085 143.616C121.488 144.139 120.864 144.4 120.213 144.4C119.573 144.4 119.104 144.24 118.805 143.92C118.507 143.589 118.357 143.227 118.357 142.832ZM115.173 140.032C115.173 140.64 115.328 141.12 115.637 141.472C115.957 141.824 116.352 142 116.821 142C117.429 142 117.984 141.712 118.485 141.136C118.656 139.237 118.896 137.595 119.205 136.208C117.979 136.208 116.997 136.603 116.261 137.392C115.536 138.181 115.173 139.061 115.173 140.032Z" fill="#FEFAE0"/>
<defs>
<filter id="filter0_d_151_14" x="0" y="0" width="180" height="180" filterUnits="userSpaceOnUse" color-interpolation-filters="sRGB">
<feFlood flood-opacity="0" result="BackgroundImageFix"/>
<feColorMatrix in="SourceAlpha" type="matrix" values="0 0 0 0 0 0 0 0 0 0 0 0 0 0 0 0 0 0 127 0" result="hardAlpha"/>
<feOffset dy="4"/>
<feGaussianBlur stdDeviation="2"/>
<feComposite in2="hardAlpha" operator="out"/>
<feColorMatrix type="matrix" values="0 0 0 0 0 0 0 0 0 0 0 0 0 0 0 0 0 0 0.25 0"/>
<feBlend mode="normal" in2="BackgroundImageFix" result="effect1_dropShadow_151_14"/>
<feBlend mode="normal" in="SourceGraphic" in2="effect1_dropShadow_151_14" result="shape"/>
</filter>
</defs>
</svg>
