<svg width="180" height="180" viewBox="0 0 180 180" fill="none" xmlns="http://www.w3.org/2000/svg">
<g filter="url(#filter0_d_158_15)">
<circle cx="90" cy="86" r="86" fill="#DDA15E"/>
<circle cx="90" cy="86" r="85.5" stroke="black"/>
</g>
<path d="M68.5059 143.696C67.8659 144.176 67.2366 144.416 66.6179 144.416C65.9993 144.416 65.5086 144.256 65.1459 143.936C64.7833 143.616 64.6019 143.136 64.6019 142.496C64.6019 142.315 64.6073 142.176 64.6179 142.08L64.4579 142.032C63.4019 143.611 61.9833 144.4 60.2019 144.4C58.4846 144.4 57.6259 143.493 57.6259 141.68C57.6259 141.072 57.7113 140.267 57.8819 139.264C58.0526 138.251 58.1966 137.397 58.3139 136.704C58.4419 136 58.5273 135.52 58.5699 135.264L57.7219 133.552C58.3939 133.168 58.9753 132.88 59.4659 132.688C59.9673 132.496 60.4686 132.4 60.9699 132.4C61.4713 132.4 61.8073 132.533 61.9779 132.8C62.1593 133.056 62.2499 133.365 62.2499 133.728C62.2499 134.091 62.0686 135.253 61.7059 137.216C61.3539 139.179 61.1779 140.325 61.1779 140.656C61.1779 141.499 61.4659 141.92 62.0419 141.92C62.4686 141.92 62.9539 141.648 63.4979 141.104C64.0419 140.56 64.4846 139.813 64.8259 138.864C64.6019 138.213 64.4899 137.541 64.4899 136.848C64.4899 135.611 64.7939 134.56 65.4019 133.696C66.0206 132.832 66.8899 132.4 68.0099 132.4C68.6286 132.4 69.1246 132.501 69.4979 132.704C69.4019 133.28 69.2153 134.325 68.9379 135.84C68.3299 139.051 68.0259 140.896 68.0259 141.376C68.0259 142.411 68.1859 143.184 68.5059 143.696ZM72.4763 147.184C71.815 147.184 71.351 147.019 71.0843 146.688C70.8283 146.368 70.7003 145.899 70.7003 145.28C70.7003 144.672 70.8283 143.44 71.0843 141.584C71.351 139.728 71.607 138.144 71.8523 136.832L70.9563 135.552C71.6176 135.168 72.1883 134.88 72.6683 134.688C73.1483 134.485 73.623 134.384 74.0923 134.384C74.8603 134.384 75.2443 134.891 75.2443 135.904C75.2443 136.043 75.223 136.325 75.1803 136.752L75.3403 136.832C75.6496 136.064 76.0976 135.467 76.6843 135.04C77.271 134.603 77.959 134.384 78.7483 134.384C79.5483 134.384 80.183 134.747 80.6523 135.472C81.1216 136.187 81.3563 137.077 81.3563 138.144C81.3563 139.573 80.855 140.875 79.8523 142.048C79.3616 142.624 78.7056 143.093 77.8843 143.456C77.063 143.808 76.1456 143.984 75.1323 143.984C74.823 143.984 74.4176 143.957 73.9163 143.904C73.8843 144.277 73.8683 144.624 73.8683 144.944C73.8683 145.627 74.0336 146.112 74.3643 146.4C73.767 146.923 73.1376 147.184 72.4763 147.184ZM74.5723 140.56L74.2043 142.416C75.495 142.384 76.5243 141.963 77.2923 141.152C78.071 140.331 78.4603 139.435 78.4603 138.464C78.4603 137.963 78.359 137.563 78.1563 137.264C77.9643 136.955 77.6816 136.8 77.3083 136.8C75.9856 136.8 75.0736 138.053 74.5723 140.56ZM84.4543 134.048L83.5583 132.768C84.8916 131.989 85.9423 131.6 86.7103 131.6C87.1476 131.6 87.457 131.691 87.6383 131.872C87.8196 132.043 87.9103 132.373 87.9103 132.864C87.9103 133.344 87.6703 134.709 87.1903 136.96C86.721 139.211 86.4863 140.789 86.4863 141.696C86.4863 142.603 86.6516 143.243 86.9823 143.616C86.2356 144.139 85.5583 144.4 84.9503 144.4C84.3423 144.4 83.8943 144.203 83.6063 143.808C83.329 143.403 83.1903 142.848 83.1903 142.144C83.1903 141.44 83.3876 140 83.7823 137.824C84.177 135.648 84.401 134.389 84.4543 134.048ZM96.8346 135.616C97.4319 135.616 97.9439 135.856 98.3706 136.336C98.8079 136.816 99.0266 137.515 99.0266 138.432C99.0266 139.339 98.8666 140.181 98.5466 140.96C98.2266 141.728 97.8052 142.357 97.2826 142.848C96.7599 143.339 96.1679 143.723 95.5066 144C94.8452 144.267 94.1679 144.4 93.4746 144.4C92.0772 144.4 90.9732 144.016 90.1626 143.248C89.3519 142.48 88.9466 141.461 88.9466 140.192C88.9466 138.475 89.4959 137.083 90.5946 136.016C91.7039 134.939 93.1119 134.4 94.8186 134.4C95.2026 134.4 95.5866 134.443 95.9706 134.528C96.0879 134.88 96.1519 135.28 96.1626 135.728C96.3866 135.653 96.6106 135.616 96.8346 135.616ZM94.8666 137.84C94.8666 137.541 94.9359 137.205 95.0746 136.832C95.2239 136.459 95.4586 136.16 95.7786 135.936C94.3706 136.235 93.3999 136.805 92.8666 137.648C92.4079 138.373 92.1786 139.12 92.1786 139.888C92.1786 140.656 92.3332 141.275 92.6426 141.744C92.9626 142.203 93.3679 142.432 93.8586 142.432C94.9466 142.432 95.7146 141.723 96.1626 140.304C95.2986 139.771 94.8666 138.949 94.8666 137.84ZM106.496 142.032L106.336 141.952C106.048 142.72 105.632 143.323 105.088 143.76C104.555 144.187 103.957 144.4 103.296 144.4C102.389 144.4 101.664 144.059 101.12 143.376C100.576 142.693 100.304 141.781 100.304 140.64C100.304 138.869 100.896 137.387 102.08 136.192C103.275 134.997 104.757 134.4 106.528 134.4C106.987 134.4 107.408 134.443 107.792 134.528C107.856 134.827 107.893 135.088 107.904 135.312C108.437 134.971 108.987 134.8 109.552 134.8C110.331 134.8 110.72 135.221 110.72 136.064C110.72 136.363 110.549 137.264 110.208 138.768C109.877 140.272 109.712 141.387 109.712 142.112C109.712 142.837 109.877 143.339 110.208 143.616C109.611 144.139 108.987 144.4 108.336 144.4C107.696 144.4 107.227 144.208 106.928 143.824C106.64 143.44 106.496 142.843 106.496 142.032ZM103.312 139.856C103.312 140.379 103.419 140.784 103.632 141.072C103.856 141.349 104.171 141.488 104.576 141.488C104.981 141.488 105.381 141.339 105.776 141.04C106.171 140.741 106.501 140.331 106.768 139.808C106.864 138.731 107.072 137.456 107.392 135.984C106.315 135.984 105.365 136.373 104.544 137.152C103.723 137.931 103.312 138.832 103.312 139.856ZM118.357 142.832L118.197 142.752C117.365 143.851 116.373 144.4 115.221 144.4C114.368 144.4 113.643 144.064 113.045 143.392C112.459 142.709 112.165 141.792 112.165 140.64C112.165 139.211 112.667 137.909 113.669 136.736C114.16 136.16 114.816 135.696 115.637 135.344C116.459 134.981 117.376 134.8 118.389 134.8C118.581 134.8 118.923 134.821 119.413 134.864C119.435 134.64 119.483 134.368 119.557 134.048L118.661 132.768C119.995 131.989 121.045 131.6 121.813 131.6C122.251 131.6 122.56 131.691 122.741 131.872C122.923 132.043 123.013 132.373 123.013 132.864C123.013 133.344 122.773 134.709 122.293 136.96C121.824 139.211 121.589 140.811 121.589 141.76C121.589 142.699 121.755 143.317 122.085 143.616C121.488 144.139 120.864 144.4 120.213 144.4C119.573 144.4 119.104 144.24 118.805 143.92C118.507 143.589 118.357 143.227 118.357 142.832ZM115.173 140.032C115.173 140.64 115.328 141.12 115.637 141.472C115.957 141.824 116.352 142 116.821 142C117.429 142 117.984 141.712 118.485 141.136C118.656 139.237 118.896 137.595 119.205 136.208C117.979 136.208 116.997 136.603 116.261 137.392C115.536 138.181 115.173 139.061 115.173 140.032Z" fill="#FEFAE0"/>
<path d="M126.5 71.4286C126.5 91.2578 109.948 107.357 89.5 107.357C69.0517 107.357 52.5 91.2578 52.5 71.4286C52.5 51.5993 69.0517 35.5 89.5 35.5C109.948 35.5 126.5 51.5993 126.5 71.4286Z" fill="#BC6C25" stroke="black"/>
<path d="M105.762 55.526C105.668 51.1696 102.732 46.4141 96.3482 45.5383L105.762 55.526ZM105.762 55.526C105.809 57.7119 105.138 59.7641 103.862 61.173M105.762 55.526L103.862 61.173M103.862 61.173C102.6 62.5663 100.711 63.372 98.2029 63.0285M103.862 61.173L98.2029 63.0285M98.2029 63.0285C95.3311 62.634 93.2433 60.5302 92.9279 58.0725C92.7541 56.7162 92.4734 53.3165 92.8641 50.3612C93.0604 48.8767 93.4189 47.5654 93.9984 46.6801C94.2841 46.2436 94.6125 45.9277 94.9859 45.7363C95.3546 45.5472 95.7984 45.4632 96.348 45.5383L98.2029 63.0285ZM89.3769 66.7939H89.378C92.9188 66.7939 95.789 68.7306 96.5836 71.2113L96.5837 71.2117C96.7947 71.8689 96.9578 72.535 97.1249 73.2174C97.1708 73.4051 97.2171 73.594 97.2647 73.7843C97.4827 74.655 97.7271 75.5427 98.0982 76.3905C98.8537 78.1169 100.121 79.6458 102.675 80.675L102.701 80.6858L102.729 80.6934C104.863 81.2804 106.23 81.9186 107.074 82.8291C107.9 83.7184 108.293 84.9415 108.293 86.8699C108.293 88.2871 107.537 89.8046 106.224 91.034C104.915 92.2582 103.089 93.1602 101.031 93.3603L101.031 93.3601L101.019 93.3616C96.251 93.9403 92.5637 93.1826 89.5858 91.8108L89.3766 91.7145L89.1674 91.8108C86.1894 93.1827 82.5008 93.9414 77.7396 93.3616L77.7396 93.3614L77.7275 93.3603C75.6688 93.1603 73.8421 92.2556 72.5336 91.0298C71.2194 89.7986 70.4644 88.281 70.4644 86.8699C70.4644 84.9936 70.8805 83.7467 71.7358 82.829C72.6086 81.8925 74.0034 81.2268 76.1245 80.6682L76.157 80.6596L76.188 80.6468C78.96 79.5023 80.2025 77.8968 80.8817 76.1308C81.2133 75.2688 81.4073 74.3773 81.5884 73.5261L81.6077 73.4354C81.7841 72.6056 81.952 71.8161 82.2231 71.0604C82.6638 69.8529 83.5855 68.7713 84.8759 67.9934C86.1672 67.2151 87.7467 66.7905 89.3769 66.7939ZM113.307 64.3317L113.308 64.3319C114.51 65.1757 115.136 66.6691 115.245 68.4384C115.354 70.2023 114.939 72.1637 114.149 73.8157L114.146 73.8223L114.143 73.829C113.38 75.5512 111.517 76.793 109.306 76.793C106.391 76.793 104.098 74.6332 104.098 72.0589C104.098 70.7745 104.665 69.6005 105.596 68.7375L105.608 68.7265L105.619 68.7147C106.417 67.872 108.132 66.5574 109.818 65.5667C110.659 65.0724 111.469 64.6737 112.133 64.4544C112.465 64.3445 112.741 64.2866 112.954 64.2761C113.173 64.2652 113.271 64.3065 113.307 64.3317ZM64.6144 73.829L64.6114 73.8221L64.6081 73.8154C63.8166 72.1636 63.4021 70.2023 63.5106 68.4383C63.6193 66.6691 64.2453 65.1756 65.4458 64.3318C65.4824 64.3063 65.5815 64.2652 65.8 64.2761C66.0135 64.2866 66.2894 64.3445 66.6221 64.4544C67.2863 64.6737 68.0956 65.0724 68.9369 65.5667C70.6234 66.5574 72.3383 67.872 73.137 68.7148L73.1481 68.7265L73.16 68.7375C74.0906 69.6003 74.6568 70.7742 74.6568 72.0589C74.6568 74.6334 72.3658 76.793 69.4486 76.793C67.2389 76.793 65.3774 75.5513 64.6144 73.829ZM82.4078 45.5383C82.9577 45.463 83.4017 45.547 83.7705 45.736C84.1439 45.9274 84.4724 46.2432 84.7581 46.6795C85.3376 47.5646 85.6961 48.8758 85.8923 50.3603C86.2828 53.3155 86.0018 56.7152 85.828 58.0716C85.5125 60.5305 83.4272 62.6329 80.5556 63.0274C78.0468 63.3715 76.1569 62.5661 74.8948 61.173C73.6185 59.7642 72.9481 57.7121 72.9949 55.5262C73.0882 51.1698 76.0245 46.414 82.4078 45.5383Z" fill="#FEFAE0" stroke="black"/>
<defs>
<filter id="filter0_d_158_15" x="0" y="0" width="180" height="180" filterUnits="userSpaceOnUse" color-interpolation-filters="sRGB">
<feFlood flood-opacity="0" result="BackgroundImageFix"/>
<feColorMatrix in="SourceAlpha" type="matrix" values="0 0 0 0 0 0 0 0 0 0 0 0 0 0 0 0 0 0 127 0" result="hardAlpha"/>
<feOffset dy="4"/>
<feGaussianBlur stdDeviation="2"/>
<feComposite in2="hardAlpha" operator="out"/>
<feColorMatrix type="matrix" values="0 0 0 0 0 0 0 0 0 0 0 0 0 0 0 0 0 0 0.25 0"/>
<feBlend mode="normal" in2="BackgroundImageFix" result="effect1_dropShadow_158_15"/>
<feBlend mode="normal" in="SourceGraphic" in2="effect1_dropShadow_158_15" result="shape"/>
</filter>
</defs>
</svg>
